<svg version="1" xmlns="http://www.w3.org/2000/svg" width="2820" height="2820" viewBox="0 0 2115.000000 2115.000000"><path d="M1264 983.3c0 524.4.1 551.6 1.8 552.1 3.1.9 182.2 39.6 183.3 39.6.8 0 1-54.2.7-186l-.3-185.9 5.5 5.3c3 2.9 58.8 56.5 124 119.1 65.2 62.6 120.2 115.4 122.2 117.4 3.7 3.6 4 4.3 31.9 100.1 15.4 53.1 28.4 96.8 28.7 97.2.8.7 184.2 38.2 184.7 37.6.1-.1-48.7-173.3-108.6-384.8C1778 1083.5 1729 910.4 1729 910.3c0-.6-463.4-477.8-464.2-478.1-.4-.2-.8 247.8-.8 551.1zM1094.5 605.2l-129 131.1-41.7 324c-22.9 178.3-41.6 324.3-41.4 324.4.4.4 291.7-190.4 293.2-192 .7-.8 10-133.8 24.8-353.7 13.1-193.9 24-355.3 24.3-358.8.3-3.4.2-6.2-.3-6.2-.5.1-58.9 59.1-129.9 131.2zM769.3 936.2l-119.1 119.3-62.1 206.6c-34.2 113.6-62.1 207.1-62.1 207.7 0 .7.2 1.2.4 1.2.3 0 64.7-39.2 143.3-87.2 78.5-47.9 142.9-87.2 143-87.2 0-.1 17.3-107 38.2-237.6 21-130.6 38.3-238.5 38.6-239.8.3-1.2.2-2.2-.2-2.2-.5 0-54.4 53.7-120 119.2zM451.5 1260.2l-116 118.1-57.2 82.5c-31.5 45.4-57.1 82.7-56.9 82.9.2.2 57.8-30.6 128.2-68.5l127.8-68.9 45.3-131.3c25-72.2 45.2-131.7 45.1-132.1-.2-.5-52.5 52.3-116.3 117.3zM1019 1386.5c-81.7 49.2-148.6 90-148.8 90.7-.7 3.5-14 108.3-13.7 108.6.4.4 294.9-35.9 295.4-36.4s17-240.9 17.1-248.2c0-2.3-.3-4.2-.7-4.2-.5.1-67.6 40.3-149.3 89.5zM644.4 1489.6l-149.9 83.5-9.2 30.7c-5 16.9-9.1 30.7-9 30.8.8.5 286.9-36.5 287.6-37.2.9-.9 31.5-190.4 30.8-191-.2-.2-67.8 37.2-150.3 83.2zM279.8 1603.8c-84 41.7-153.3 76.3-154 76.9-1 1-.2 1.3 3.5 1.3 5.3 0 258.9-32.6 262.6-33.7 2.1-.7 4.6-7.2 22.7-59.8 11.2-32.5 20.4-59.3 20.4-59.8 0-.4-.6-.7-1.2-.6-.7 0-70 34.1-154 75.7z"/></svg>